# xmcd CD database file
#
# Track frame offsets:
#	150
#	6500
#	28175
#	44225
#	48837
#	67975
#	75932
#	94042
#	99002
#	122982
#	142322
#	159705
#
# Disc length: 2341 seconds
#
# Revision: 0
# Processed by: cddbd v1.5PL3 Copyright (c) Steve Scherf et al.
# Submitted via: CDex 1.50
#
DISCID=9f09230c
DTITLE=西村知美 - TOMOROSE LANDへようこそ
DYEAR=1989
DGENRE=JPop
TTITLE0=オーバーチュアー
TTITLE1=光の海の中へ
TTITLE2=コスモスと少年
TTITLE3=夜空と三日月
TTITLE4=星の首飾り
TTITLE5=嵐のテーマ〜渚
TTITLE6=さりげなく愛
TTITLE7=サバンナのテーマ
TTITLE8=真白なハート
TTITLE9=いそしぎ
TTITLE10=愛360゜
TTITLE11=フィナーレ
EXTD=YEAR: 1989/12/13
EXTT0=
EXTT1=
EXTT2=
EXTT3=
EXTT4=
EXTT5=
EXTT6=
EXTT7=
EXTT8=
EXTT9=
EXTT10=
EXTT11=
PLAYORDER=
